<svg xmlns="http://www.w3.org/2000/svg" version="1.0" width="1169.000000pt" height="232.000000pt" viewBox="0 0 1169.000000 232.000000" preserveAspectRatio="xMidYMid meet">

<g transform="translate(0.000000,232.000000) scale(0.100000,-0.100000)" fill="#ffffff" stroke="none">
<path d="M925 2249 c-113 -11 -226 -35 -285 -60 -89 -39 -168 -142 -224 -290 -13 -36 -97 -322 -185 -635 -89 -313 -164 -577 -167 -587 -5 -16 8 -17 212 -15 l218 3 153 543 c169 604 165 595 262 641 l56 26 413 3 c431 4 526 -3 572 -36 49 -36 43 -65 -115 -623 -80 -283 -148 -522 -151 -531 -5 -17 10 -18 210 -18 119 0 216 2 216 5 0 3 74 267 164 588 91 320 170 610 177 645 16 86 8 206 -18 240 -26 36 -94 69 -184 88 -62 14 -165 17 -654 19 -319 2 -620 -1 -670 -6z"/>
<path d="M3224 2250 c-235 -14 -353 -49 -428 -130 -46 -49 -107 -161 -144 -265 -44 -121 -232 -808 -243 -888 -30 -205 29 -266 281 -297 51 -6 399 -10 876 -10 l791 0 47 167 c26 93 50 176 52 185 5 16 -42 17 -738 20 -687 3 -745 4 -775 21 -18 9 -38 27 -44 39 -13 23 -7 106 10 151 l11 27 804 0 805 0 20 68 c56 191 81 281 81 291 0 8 -226 11 -806 11 -762 0 -805 1 -800 18 2 9 11 37 18 62 18 63 81 124 144 140 36 10 240 14 780 17 l731 4 51 183 c29 100 52 185 52 189 0 9 -1408 6 -1576 -3z"/>
<path d="M5086 2248 c4 -7 117 -169 251 -360 134 -191 243 -351 243 -355 -1 -5 -407 -326 -903 -715 -496 -390 -915 -719 -932 -733 l-30 -24 330 0 330 0 879 692 c483 381 879 696 879 701 1 5 -125 188 -279 407 l-279 398 -248 1 c-196 0 -247 -3 -241 -12z"/>
<path d="M7387 2249 c-104 -10 -204 -32 -262 -58 -63 -28 -967 -730 -958 -744 24 -42 472 -649 502 -680 43 -45 120 -72 255 -88 59 -7 309 -9 711 -6 676 4 696 6 828 64 75 34 145 110 193 211 42 88 255 824 280 967 25 141 6 228 -59 272 -42 29 -128 50 -256 62 -122 13 -1104 12 -1234 0z m1015 -391 c44 -20 58 -43 58 -96 0 -38 -148 -582 -169 -621 -18 -33 -80 -80 -123 -93 -33 -10 -170 -13 -583 -13 -459 0 -545 2 -572 15 -23 11 -66 61 -144 169 -61 84 -107 157 -102 161 4 4 143 111 309 237 294 226 325 246 409 257 17 2 221 3 455 2 373 -1 429 -3 462 -18z"/>
<path d="M9635 2249 c-99 -10 -217 -39 -273 -68 -76 -39 -151 -141 -202 -273 -16 -42 -102 -333 -190 -645 -88 -312 -163 -576 -166 -586 -5 -16 8 -17 212 -15 l217 3 154 540 c105 367 162 552 179 578 37 57 93 77 238 89 153 13 788 4 837 -11 54 -16 74 -45 73 -100 0 -27 -60 -254 -147 -558 -81 -282 -147 -520 -147 -528 0 -13 30 -15 213 -15 l212 0 164 580 c185 655 190 677 191 778 0 143 -45 187 -227 223 -73 14 -1208 21 -1338 8z"/>
<path d="M11350 2220 c0 -5 11 -10 25 -10 24 0 25 -2 25 -66 0 -48 3 -65 13 -62 7 3 13 28 15 66 3 54 6 62 22 62 11 0 20 5 20 10 0 6 -27 10 -60 10 -33 0 -60 -4 -60 -10z"/>
<path d="M11482 2158 c3 -83 21 -99 26 -23 l4 50 16 -49 c23 -66 39 -69 54 -9 l13 48 5 -45 c8 -70 25 -53 28 28 3 66 1 72 -17 72 -15 0 -24 -13 -37 -52 l-17 -53 -17 50 c-12 38 -22 51 -39 53 -21 3 -22 1 -19 -70z"/>
</g>
</svg>